<svg xmlns="http://www.w3.org/2000/svg" viewBox="0 0 1440 980" role="img" aria-labelledby="title desc">
  <title id="title">Agent Adapter Lab Flow</title>
  <desc id="desc">A detailed workflow map showing how the manifest feeds the Agent Adapter Lab, pack command, target repository, audit gates, and contribution issue seed.</desc>
  <defs>
    <marker id="arrow" viewBox="0 0 10 10" refX="8" refY="5" markerWidth="8" markerHeight="8" orient="auto-start-reverse">
      <path d="M 0 0 L 10 5 L 0 10 z" fill="#2d3b37"/>
    </marker>
    <linearGradient id="banner" x1="0" x2="1" y1="0" y2="0">
      <stop offset="0" stop-color="#e0f2ed"/>
      <stop offset="0.52" stop-color="#ffffff"/>
      <stop offset="1" stop-color="#e7edf8"/>
    </linearGradient>
    <style>
      .bg { fill: #f6f7f4; }
      .panel { fill: #ffffff; stroke: #cfd8d2; stroke-width: 2; rx: 18; }
      .soft { fill: #fbfcfa; stroke: #d8dfda; stroke-width: 2; rx: 14; }
      .green { fill: #e1f2ed; stroke: #14806d; stroke-width: 2; rx: 14; }
      .blue { fill: #e7edf8; stroke: #4167a7; stroke-width: 2; rx: 14; }
      .amber { fill: #fff1d9; stroke: #b97817; stroke-width: 2; rx: 14; }
      .rose { fill: #fbe7ef; stroke: #bd3f61; stroke-width: 2; rx: 14; }
      .ink { fill: #16211e; font-family: Inter, ui-sans-serif, system-ui, -apple-system, BlinkMacSystemFont, "Segoe UI", sans-serif; }
      .muted { fill: #66726f; font-family: Inter, ui-sans-serif, system-ui, -apple-system, BlinkMacSystemFont, "Segoe UI", sans-serif; }
      .title { font-size: 34px; font-weight: 900; }
      .h { font-size: 21px; font-weight: 900; }
      .s { font-size: 15px; font-weight: 800; }
      .tiny { font-size: 12px; font-weight: 700; }
      .line { stroke: #2d3b37; stroke-width: 3; fill: none; marker-end: url(#arrow); }
      .thin { stroke: #8da09a; stroke-width: 2; fill: none; marker-end: url(#arrow); }
      .dash { stroke: #8da09a; stroke-width: 2; fill: none; stroke-dasharray: 7 7; marker-end: url(#arrow); }
      .chip { fill: #ffffff; stroke: #cfd8d2; stroke-width: 1.5; rx: 18; }
    </style>
  </defs>

  <rect class="bg" width="1440" height="980"/>
  <rect x="44" y="36" width="1352" height="116" rx="24" fill="url(#banner)" stroke="#cfd8d2" stroke-width="2"/>
  <text class="ink title" x="78" y="82">Agent Adapter Lab Flow</text>
  <text class="muted s" x="78" y="114">4 core adapters · optional recipes · source-of-truth sync · copyable pack command · AGENT_PACK_MANIFEST.json receipt</text>
  <rect class="chip" x="1050" y="62" width="126" height="34"/>
  <text class="ink tiny" x="1074" y="84">local-first</text>
  <rect class="chip" x="1190" y="62" width="146" height="34"/>
  <text class="ink tiny" x="1213" y="84">no telemetry</text>
  <rect class="chip" x="1050" y="104" width="286" height="34"/>
  <text class="ink tiny" x="1074" y="126">not psychometric ground truth</text>

  <rect class="panel" x="56" y="202" width="306" height="236"/>
  <text class="ink h" x="84" y="242">Source Manifest</text>
  <text class="muted s" x="84" y="274">agent-adapters/manifest.json</text>
  <text class="muted tiny" x="84" y="309">schema: mbti-typing-agent-adapters/v1</text>
  <text class="muted tiny" x="84" y="335">canonical: skill/mbti-typing/SKILL.md</text>
  <text class="muted tiny" x="84" y="361">contract: AGENTS.md</text>
  <text class="muted tiny" x="84" y="387">checked_on: 2026-05-29</text>
  <rect class="green" x="84" y="404" width="226" height="48"/>
  <text class="ink tiny" x="104" y="433">source-of-truth sync</text>

  <rect class="panel" x="440" y="188" width="410" height="314"/>
  <text class="ink h" x="472" y="230">Agent Adapter Lab UI</text>
  <text class="muted s" x="472" y="260">docs/agent-adapter-lab.html</text>
  <rect class="soft" x="472" y="286" width="342" height="46"/>
  <text class="ink tiny" x="496" y="315">Target selector + support filter</text>
  <rect class="soft" x="472" y="346" width="164" height="46"/>
  <text class="ink tiny" x="494" y="375">Core Pack</text>
  <rect class="soft" x="650" y="346" width="164" height="46"/>
  <text class="ink tiny" x="674" y="375">Select All</text>
  <rect class="green" x="472" y="406" width="342" height="58"/>
  <text class="ink tiny" x="496" y="432">Pack command</text>
  <text class="muted tiny" x="496" y="452">scripts/export_agent_pack.py --target ...</text>

  <rect class="panel" x="934" y="202" width="450" height="236"/>
  <text class="ink h" x="964" y="242">Selectable Targets</text>
  <text class="muted s" x="964" y="274">Codex · ChatGPT · Zed · Devin · Claude Code</text>
  <text class="muted s" x="964" y="302">Cursor · opencode · Gemini CLI · GitHub Copilot</text>
  <text class="muted s" x="964" y="330">Windsurf · Cline · Continue · aider · Junie · Q · Roo · Kilo</text>
  <rect class="blue" x="964" y="360" width="180" height="46"/>
  <text class="ink tiny" x="988" y="389">4 core</text>
  <rect class="amber" x="1160" y="360" width="180" height="46"/>
  <text class="ink tiny" x="1184" y="389">one protocol</text>

  <rect class="panel" x="82" y="570" width="356" height="250"/>
  <text class="ink h" x="112" y="610">Pack Exporter</text>
  <text class="muted s" x="112" y="642">scripts/export_agent_pack.py</text>
  <rect class="soft" x="112" y="668" width="280" height="42"/>
  <text class="ink tiny" x="134" y="695">BASELINE_PATHS</text>
  <rect class="soft" x="112" y="724" width="280" height="42"/>
  <text class="ink tiny" x="134" y="751">selected target entrypoints</text>
  <rect class="green" x="112" y="780" width="280" height="42"/>
  <text class="ink tiny" x="134" y="807">AGENT_PACK_MANIFEST.json</text>

  <rect class="panel" x="538" y="570" width="348" height="250"/>
  <text class="ink h" x="568" y="610">Target Repo</text>
  <text class="muted s" x="568" y="642">install copied agent pack</text>
  <text class="muted tiny" x="568" y="676">.cursor/rules/mbti-typing.mdc</text>
  <text class="muted tiny" x="568" y="702">.claude/skills/mbti-typing/SKILL.md</text>
  <text class="muted tiny" x="568" y="728">.github/copilot-instructions.md</text>
  <text class="muted tiny" x="568" y="754">CONVENTIONS.md + AGENTS.md</text>
  <rect class="blue" x="568" y="780" width="252" height="42"/>
  <text class="ink tiny" x="590" y="807">candidate set · falsifier</text>

  <rect class="panel" x="990" y="570" width="350" height="250"/>
  <text class="ink h" x="1020" y="610">Release Gates</text>
  <text class="muted tiny" x="1020" y="646">scripts/agent_adapter_audit.py</text>
  <text class="muted tiny" x="1020" y="674">scripts/agent_pack_export_audit.py</text>
  <text class="muted tiny" x="1020" y="702">scripts/agent_adapter_lab_audit.py</text>
  <text class="muted tiny" x="1020" y="730">scripts/sync_agent_adapter_lab.py</text>
  <rect class="green" x="1020" y="756" width="118" height="42"/>
  <text class="ink tiny" x="1042" y="783">make test</text>
  <rect class="rose" x="1154" y="756" width="148" height="42"/>
  <text class="ink tiny" x="1178" y="783">no drift</text>

  <rect class="amber" x="214" y="874" width="1012" height="58"/>
  <text class="ink s" x="248" y="909">agent_adapter_improvement.yml issue seed captures missing adapter, stale docs, weak invocation, export gap, or safety-boundary drift.</text>

  <path class="line" d="M 362 318 C 392 318, 404 318, 434 318"/>
  <path class="thin" d="M 850 318 C 884 318, 896 318, 928 318"/>
  <path class="line" d="M 640 502 C 640 536, 420 536, 346 570"/>
  <path class="line" d="M 438 702 C 474 702, 492 702, 532 702"/>
  <path class="line" d="M 886 702 C 924 702, 946 702, 984 702"/>
  <path class="dash" d="M 1165 820 C 1165 858, 1050 866, 990 874"/>
  <path class="dash" d="M 260 820 C 260 858, 376 866, 430 874"/>
  <path class="thin" d="M 645 188 C 640 156, 350 160, 210 202"/>
  <path class="dash" d="M 1180 438 C 1180 502, 1174 520, 1170 570"/>
</svg>
